<?xml version="1.0" encoding="utf-8"?>
<!-- Generator: Adobe Illustrator 27.1.1, SVG Export Plug-In . SVG Version: 6.00 Build 0)  -->
<svg version="1.1" id="Layer_1" xmlns="http://www.w3.org/2000/svg" xmlns:xlink="http://www.w3.org/1999/xlink" x="0px" y="0px"
	 viewBox="0 0 30 30" style="enable-background:new 0 0 30 30;" xml:space="preserve">
<style type="text/css">
	.st0{fill:#63171D;}
	.st1{fill:#E25F1C;}
	.st2{fill:#FFFFFF;}
</style>
<path class="st0" d="M3.2,5.79c4.66,0.68,11.26,2.95,11.12,8.64c-0.04,0.86-1.28,0.89-1.37,0.04c-0.07-2.19-1.67-3.74-3.59-4.6
	C7.4,8.98,5.16,8.55,3.01,8.44C1.17,8.32,1.35,5.65,3.2,5.79L3.2,5.79z"/>
<path class="st0" d="M27.04,8.44c-2.15,0.11-4.4,0.54-6.35,1.42c-1.92,0.86-3.52,2.42-3.59,4.6c-0.08,0.86-1.33,0.83-1.37-0.03
	c-0.11-2.01,0.9-3.98,2.44-5.24c2.46-2.02,5.58-2.94,8.68-3.4C28.68,5.65,28.88,8.32,27.04,8.44L27.04,8.44z"/>
<path class="st0" d="M18.95,20l-3.37,4.12c-0.38,0.47-1.09,0.51-1.52,0.09c-0.66-0.63-1.29-1.38-1.87-2.09
	c-0.49-0.6-0.95-1.23-1.4-1.86c-0.03-0.05-0.08-0.08-0.08-0.15c0-0.07,0.05-0.17,0.19-0.34c0.44-0.53,1.01-0.91,1.62-1.14
	c0.29-0.1,0.38-0.13,0.49,0.06c0.57,0.81,1.12,1.66,1.62,2.51c0.32,0.56,0.68,1.18,0.94,1.77l-1.62,0l2.75-4.56
	C17.8,16.81,20.11,18.43,18.95,20L18.95,20z"/>
<path class="st1" d="M1.82,15.62c0-3.68,2.67-6.32,6.36-6.32c3.72,0,6.36,2.62,6.36,6.3c0,3.7-2.65,6.32-6.36,6.32
	C4.45,21.92,1.82,19.3,1.82,15.62z"/>
<path class="st2" d="M11.17,15.62c0-2.05-1.2-3.4-2.99-3.4c-1.81,0-2.99,1.29-2.99,3.37c0,2.05,1.2,3.35,2.99,3.35
	C9.99,18.96,11.17,17.65,11.17,15.62z"/>
<path class="st0" d="M10.7,15.61c0-1.26-0.74-2.08-1.84-2.08c-1.11,0-1.84,0.79-1.84,2.07c0,1.26,0.74,2.06,1.84,2.06
	C9.97,17.66,10.7,16.85,10.7,15.61z"/>
<path class="st2" d="M8.78,14.95c0-0.39-0.23-0.65-0.57-0.65c-0.35,0-0.57,0.25-0.57,0.65c0,0.39,0.23,0.64,0.57,0.64
	C8.55,15.59,8.78,15.34,8.78,14.95z"/>
<path class="st1" d="M21.64,21.92c-3.7,0-6.36-2.62-6.36-6.32c0-3.68,2.64-6.3,6.36-6.3c3.68,0,6.36,2.64,6.36,6.32
	S25.36,21.92,21.64,21.92z"/>
<path class="st2" d="M21.64,18.96c1.79,0,2.99-1.31,2.99-3.35c0-2.09-1.18-3.37-2.99-3.37c-1.79,0-2.99,1.35-2.99,3.4
	C18.64,17.65,19.82,18.96,21.64,18.96z"/>
<path class="st0" d="M24.09,15.63c0-1.26-0.74-2.08-1.84-2.08c-1.11,0-1.84,0.79-1.84,2.07c0,1.26,0.74,2.06,1.84,2.06
	C23.36,17.68,24.09,16.87,24.09,15.63z"/>
<path class="st2" d="M22.17,14.97c0-0.39-0.23-0.65-0.57-0.65c-0.35,0-0.57,0.25-0.57,0.65c0,0.39,0.23,0.64,0.57,0.64
	C21.95,15.61,22.17,15.36,22.17,14.97z"/>
</svg>
